<svg xmlns="http://www.w3.org/2000/svg" width="499.972" height="500" viewBox="0 0 546 546.03">
  <metadata><?xpacket begin="﻿" id="W5M0MpCehiHzreSzNTczkc9d"?>
<x:xmpmeta xmlns:x="adobe:ns:meta/" x:xmptk="Adobe XMP Core 5.6-c138 79.159824, 2016/09/14-01:09:01        ">
   <rdf:RDF xmlns:rdf="http://www.w3.org/1999/02/22-rdf-syntax-ns#">
      <rdf:Description rdf:about=""
            xmlns:xmp="http://ns.adobe.com/xap/1.0/">
         <xmp:CreatorTool>Adobe Photoshop CC 2017 (Macintosh)</xmp:CreatorTool>
      </rdf:Description>
   </rdf:RDF>
</x:xmpmeta>
                                                                                                    
                                                                                                    
                                                                                                    
                                                                                                    
                                                                                                    
                                                                                                    
                                                                                                    
                                                                                                    
                                                                                                    
                                                                                                    
                                                                                                    
                                                                                                    
                                                                                                    
                                                                                                    
                                                                                                    
                                                                                                    
                                                                                                    
                                                                                                    
                                                                                                    
                                                                                                    
                           
<?xpacket end="w"?></metadata>
<defs>
    <style>
      .cls-1 {
        fill: #fff;
      }

      .cls-1, .cls-2, .cls-3 {
        fill-rule: evenodd;
      }

      .cls-2 {
        fill: #adc0c6;
      }
    </style>
  </defs>
  <path class="cls-1" d="M868.69,1347.86c-3.078,40.12-30.66,72.66-70.352,97.05a153.328,153.328,0,0,1-20.04,23.1c-20.825,19.61-59.526,38.58-59.526,38.58l15.082-32.13c-42.042,14.22-88.7,22.12-131.93,23.31-44.121,1.22-80.5-1.04-110.489-6.08l-25.1,19.31,5.359-23.22a245.693,245.693,0,0,1-31.024-9.25l-23.94,11.53,2.2-20.95,1.441,0.35c-52.3-27.56-64.459-71.64-65.377-117.2-0.82-40.69,26.82-101.83,70.839-147.61,9.989-41.33,28-99.68,57.032-142.3,59.182-86.872,134.451-73.795,83.778,0-39.071,56.9-51.692,79.76-54.649,84.65-2,3.31,1.7-.44,7-2,11.571-3.41,34.534-10.99,66.672-13.28a436.408,436.408,0,0,1,58.141-71.57c65.87-65.609,135.787-42.37,63.935,46.3-9.073,11.19-19.232,22.92-29.776,34.61,54.433,14.9,102.572,45.11,136.914,81.55,12.925-4.62,30.125-3.99,43.883,20.52,8.929,15.92,4.866,31.04-1.593,42.35C866.071,1306.32,870.25,1327.52,868.69,1347.86Z" transform="translate(-323 -983.485)"/>
  <path id="Shape_1_copy" data-name="Shape 1 copy" class="cls-2" d="M511.765,1147.81C497.226,1155.75,477.33,1166.9,465,1175a422.059,422.059,0,0,0-38.9,28.58c10.039-41.27,27.986-98.98,56.768-141.23,59.182-86.872,134.451-73.795,83.778,0C549.409,1087.46,529.238,1119.41,511.765,1147.81Zm-97.077,318.48a120.254,120.254,0,0,1-31.485-25.91C397.457,1452.14,409.217,1461.8,414.688,1466.29ZM441,1478l0.253,0.74-0.582-.21-23.94,11.53,2.179-20.7Zm142-234c-0.5-1.85,50.643-53.95,95.617-102.76q5.981,1.65,11.853,3.55C639.38,1178.92,583.357,1245.31,583,1244Zm-51-32c-18.354,26.16,26.377-44.88,48.5-79.85,1.679-.15,3.356-0.29,5.031-0.41C562.061,1167.37,540.341,1200.11,532,1212Zm305,39a220.191,220.191,0,0,0-21.461-28.61c12.848-4.37,29.7-3.36,43.23,20.74,8.929,15.92,4.866,31.04-1.593,42.35,0.3,0.71.586,1.42,0.877,2.13C852.224,1276.7,844.956,1263.74,837,1251Z" transform="translate(-323 -983.485)"/>
  <path class="cls-2" d="M403,1358s-21.388,3.89-41,15c-24.779,14.04-39,25-39,25s13.943-8.37,38-22A226.091,226.091,0,0,1,403,1358Zm-65,63s15.64-16.24,32-30c15.088-12.69,37-21,37-21a369.079,369.079,0,0,0-34,22C355.008,1405.3,338,1421,338,1421Zm164-51s23.1,17.36,42,36a318.885,318.885,0,0,1,31,36s-17.178-18.42-35-36C521.341,1387.6,502,1370,502,1370Zm-1-10s28.3,11.26,50,25a137.88,137.88,0,0,1,29,25,350.272,350.272,0,0,0-34-25C524.6,1371.45,501,1360,501,1360Z" transform="translate(-323 -983.485)"/>
  <path class="cls-3" d="M531.313,1312.11c-2.3,11.54-10.389,23.14-17.617,21.7-7.151-1.42-7.946-14.48-3.849-25.41,3.709-9.89,10.436-16.21,15.568-15.42C530.6,1293.78,533.389,1301.72,531.313,1312.11Zm-73.145,77.48c-5.673-5.08-8.56-12.61-8.56-12.61a89.227,89.227,0,0,1-8.56,8.41c-5.046,4.08-12.841,6.31-12.841,6.31a74.462,74.462,0,0,0,11.771-10.51,114.835,114.835,0,0,0,10.7-14.71s3.022,10.09,8.56,17.86A64.252,64.252,0,0,0,473.149,1398,44.45,44.45,0,0,1,458.168,1389.59Zm-57.981-58.96c-7.016-1.41-7.8-14.39-3.776-25.25,3.638-9.83,10.238-16.11,15.271-15.32,5.087,0.79,7.823,8.68,5.787,19C415.208,1320.53,407.278,1332.05,400.187,1330.63Z" transform="translate(-323 -983.485)"/>
</svg>
